<svg xmlns="http://www.w3.org/2000/svg" viewBox="0 0 512 512">
  <rect width="512" height="512" fill="#F97316"/>
  <g transform="translate(32, 96) scale(0.85)">
    <!-- Scooter Body -->
    <path d="M480 256c0-26.5-21.5-48-48-48h-16l-32-64h-80c-26.5 0-48 21.5-48 48v80h-64V96c0-26.5-21.5-48-48-48H32c-17.7 0-32 14.3-32 32s14.3 32 32 32h80v192c0 17.7 14.3 32 32 32h32v32c0 44.2 35.8 80 80 80s80-35.8 80-80v-32h112c26.5 0 48-21.5 48-48v-32z" fill="#000000"/>
    <!-- Wheels -->
    <circle cx="256" cy="400" r="48" fill="#F97316"/>
    <circle cx="256" cy="400" r="32" fill="#000000"/>
    <circle cx="96" cy="400" r="48" fill="#F97316"/>
    <circle cx="96" cy="400" r="32" fill="#000000"/>
  </g>
</svg>