<svg xmlns="http://www.w3.org/2000/svg" viewBox="0 0 512 512">
  <!-- Full bleed background -->
  <rect width="512" height="512" fill="#F97316"/>
  
  <!-- Motorcycle Silhouette (Black) -->
  <g transform="translate(64, 128) scale(0.75)" fill="#000000">
    <path d="M434.5 242.2c-12.8-51.5-59.1-85-110.6-85-19.1 0-38.2 4.6-55.5 13.6l-50.5-90.1c-6.8-12.1-22.3-16.3-34.4-9.5-12.1 6.8-16.3 22.3-9.5 34.4l34.4 61.3c-24.8 19.3-43.5 46.8-52.5 78.4H64c-13.9 0-25.1 11.2-25.1 25.1s11.2 25.1 25.1 25.1h80c-2.4 8.2-3.8 16.8-3.8 25.7 0 52.8 42.8 95.6 95.6 95.6s95.6-42.8 95.6-95.6c0-8.9-1.3-17.5-3.8-25.7h136.6c13.9 0 25.1-11.2 25.1-25.1s-11.2-25.2-25.1-25.2zM235.6 373.9c-25.1 0-45.5-20.4-45.5-45.5s20.4-45.5 45.5-45.5 45.5 20.4 45.5 45.5-20.4 45.5-45.5 45.5z"/>
    <!-- Delivery Box -->
    <rect x="30" y="50" width="140" height="140" rx="10" />
  </g>
</svg>